<svg width="300" height="300" viewBox="0 0 300 300" fill="none" xmlns="http://www.w3.org/2000/svg">
<path d="M70.3125 93.75V221.287C70.3125 231.248 76.2937 239.062 86.5453 239.062H99.9281C99.4688 239.062 98.4375 242.442 98.4375 244.102V280.223C98.4375 289.664 107.489 297.319 117.188 297.319C126.891 297.319 135.938 289.664 135.938 280.223V244.102C135.938 242.442 134.128 239.062 133.683 239.062H166.327C165.881 239.062 164.062 242.442 164.062 244.102V280.223C164.062 289.664 173.095 297.319 182.794 297.319C192.516 297.319 201.562 289.664 201.562 280.223V244.102C201.562 242.442 200.536 239.062 200.077 239.062H213.478C223.73 239.062 229.688 231.248 229.688 221.287V93.75H69.2391H70.3125ZM37.5 95.8265C27.7922 95.8265 18.75 103.486 18.75 112.922V186.117C18.75 195.558 27.7922 203.212 37.5 203.212C47.2031 203.212 56.25 195.558 56.25 186.117V112.927C56.25 103.486 47.2031 95.8265 37.5 95.8265ZM190.355 27.3187L193.627 22.5187L196.903 17.775L204.202 7.11091C204.417 6.80122 204.567 6.45097 204.643 6.08145C204.719 5.71192 204.719 5.33082 204.643 4.96128C204.567 4.59173 204.417 4.24145 204.202 3.9317C203.987 3.62194 203.711 3.35918 203.391 3.15935C202.746 2.73598 201.962 2.58229 201.205 2.7313C200.449 2.8803 199.781 3.32012 199.345 3.95623L188.203 20.189L184.852 25.0781C174.263 21.075 162.464 18.8437 150 18.8437C137.564 18.8437 125.742 21.0797 115.153 25.0781L111.82 20.1937L108.525 15.3984L100.697 3.9656C100.252 3.33239 99.5799 2.89578 98.8206 2.74724C98.0612 2.59869 97.2739 2.74974 96.6234 3.16873C96.3062 3.3709 96.0327 3.63467 95.8191 3.94443C95.6056 4.2542 95.4564 4.60365 95.3804 4.9721C95.3043 5.34056 95.303 5.72053 95.3764 6.08952C95.4498 6.45851 95.5965 6.80901 95.8078 7.12029L103.102 17.789L106.378 22.5375L109.669 27.3234C84.8063 38.5969 67.9828 60.9375 67.9828 84.375H232.022C232.022 60.9375 215.203 38.5969 190.355 27.3187ZM114.848 61.6172C109.978 61.6172 106.055 57.7875 106.055 53.0578C106.055 48.3281 109.978 44.5172 114.848 44.5172C119.705 44.5172 123.637 48.3281 123.637 53.0578C123.637 57.7875 119.709 61.6172 114.848 61.6172ZM185.161 61.6172C180.295 61.6172 176.363 57.7875 176.363 53.0578C176.363 48.3281 180.295 44.5172 185.161 44.5172C190.017 44.5172 193.95 48.3281 193.95 53.0578C193.95 57.7875 190.017 61.6172 185.161 61.6172Z" fill="#57C927"/>
<path d="M38.3344 134.039C31.0266 134.039 23.4375 127.144 18.75 116.208V186.122C18.75 195.562 27.7922 203.217 37.5 203.217C47.2031 203.217 56.25 195.562 56.25 186.122V119.855C51.5625 128.639 44.7844 134.039 38.3344 134.039Z" fill="#1CB71C"/>
<path d="M262.5 95.8265C252.792 95.8265 243.75 103.486 243.75 112.922V186.117C243.75 195.558 252.792 203.212 262.5 203.212C272.203 203.212 281.25 195.558 281.25 186.117V112.927C281.25 103.486 272.203 95.8265 262.5 95.8265Z" fill="#57C927"/>
<path d="M263.334 134.039C256.027 134.039 248.438 127.144 243.75 116.208V186.122C243.75 195.562 252.792 203.217 262.5 203.217C272.203 203.217 281.25 195.562 281.25 186.122V119.855C276.563 128.639 269.784 134.039 263.334 134.039ZM150 107.756C112.922 107.756 79.6875 103.467 70.3125 97.3781V221.287C70.3125 231.248 76.2938 239.062 86.5453 239.062H99.9281C99.4688 239.062 98.4375 242.442 98.4375 244.102V280.223C98.4375 289.664 107.489 297.319 117.188 297.319C126.891 297.319 135.938 289.664 135.938 280.223V244.102C135.938 242.442 134.128 239.062 133.683 239.062H166.327C165.881 239.062 164.063 242.442 164.063 244.102V280.223C164.063 289.664 173.095 297.319 182.794 297.319C192.516 297.319 201.562 289.664 201.562 280.223V244.102C201.562 242.442 200.536 239.062 200.077 239.062H213.478C223.73 239.062 229.688 231.248 229.688 221.287V97.3734C220.313 103.462 187.083 107.756 150 107.756ZM193.95 53.0531C193.95 57.7828 190.017 61.6125 185.161 61.6125C180.295 61.6125 176.363 57.7828 176.363 53.0531C176.363 50.489 177.539 48.225 179.372 46.6594C170.105 45.1125 160.247 44.264 150 44.264C139.753 44.264 129.9 45.1125 120.628 46.6594C122.466 48.2203 123.642 50.489 123.642 53.0531C123.642 57.7828 119.709 61.6125 114.853 61.6125C109.983 61.6125 106.059 57.7828 106.059 53.0531C106.059 51.8437 106.327 50.6953 106.791 49.65C92.7375 53.3437 80.6625 58.7344 71.55 65.3578C69.2531 71.3906 67.9828 79.6875 67.9828 84.375H232.022C232.022 79.6875 230.752 71.3953 228.459 65.3672C219.352 58.7344 207.272 53.3344 193.228 49.6406C193.688 50.6859 193.95 51.8484 193.95 53.0531Z" fill="#1CB71C"/>
<path d="M150 156.67C118.42 156.67 89.0625 150.441 70.3125 140.231V221.287C70.3125 231.248 76.2937 239.062 86.5453 239.062H99.9281C99.4688 239.062 98.4375 242.442 98.4375 244.102V280.223C98.4375 289.664 107.489 297.319 117.188 297.319C126.891 297.319 135.938 289.664 135.938 280.223V244.102C135.938 242.442 134.128 239.062 133.683 239.062H166.327C165.881 239.062 164.062 242.442 164.062 244.102V280.223C164.062 289.664 173.095 297.319 182.794 297.319C192.516 297.319 201.562 289.664 201.562 280.223V244.102C201.562 242.442 200.536 239.062 200.077 239.062H213.478C223.73 239.062 229.688 231.248 229.688 221.287V140.231C210.938 150.445 181.58 156.67 150 156.67Z" fill="#049E42"/>
</svg>
