<svg width="36" height="36" viewBox="0 0 36 36" fill="none" xmlns="http://www.w3.org/2000/svg">
<g clip-path="url(#clip0_102_86)">
<path d="M27 7.5H9C8.60218 7.5 8.22064 7.65804 7.93934 7.93934C7.65804 8.22064 7.5 8.60218 7.5 9V27C7.5 27.3978 7.65804 27.7794 7.93934 28.0607C8.22064 28.342 8.60218 28.5 9 28.5H17.5V20.5H15.5V17.5H17.5V15.5C17.5 14.4391 17.9214 13.4217 18.6716 12.6716C19.4217 11.9214 20.4391 11.5 21.5 11.5H24.5V14.5H21.5C21.2348 14.5 20.9804 14.6054 20.7929 14.7929C20.6054 14.9804 20.5 15.2348 20.5 15.5V17.5H24.5L24 20.5H20.5V28.5H27C27.3978 28.5 27.7794 28.342 28.0607 28.0607C28.342 27.7794 28.5 27.3978 28.5 27V9C28.5 8.60218 28.342 8.22064 28.0607 7.93934C27.7794 7.65804 27.3978 7.5 27 7.5Z" stroke="#D1D5DB" stroke-width="2" stroke-linecap="round" stroke-linejoin="round"/>
</g>
<defs>
<clipPath id="clip0_102_86">
<rect width="24" height="24" fill="white" transform="translate(6 6)"/>
</clipPath>
</defs>
</svg>
