<svg width="36" height="36" viewBox="0 0 36 36" fill="none" xmlns="http://www.w3.org/2000/svg">
<path d="M20.9998 28V24C21.1389 22.7473 20.7797 21.4901 19.9998 20.5C22.9998 20.5 25.9998 18.5 25.9998 15C26.0798 13.75 25.7298 12.52 24.9998 11.5C25.2798 10.35 25.2798 9.15 24.9998 8C24.9998 8 23.9998 8 21.9998 9.5C19.3598 9 16.6398 9 13.9998 9.5C11.9998 8 10.9998 8 10.9998 8C10.6998 9.15 10.6998 10.35 10.9998 11.5C10.2717 12.5159 9.91827 13.7528 9.99979 15C9.99979 18.5 12.9998 20.5 15.9998 20.5C15.6098 20.99 15.3198 21.55 15.1498 22.15C14.9798 22.75 14.9298 23.38 14.9998 24V28" stroke="#D1D5DB" stroke-width="2" stroke-linecap="round" stroke-linejoin="round"/>
<path d="M15 24C10.49 26 10 22 8 22" stroke="#D1D5DB" stroke-width="2" stroke-linecap="round" stroke-linejoin="round"/>
</svg>
