<svg width="128" height="128" viewBox="0 0 128 128" fill="none" xmlns="http://www.w3.org/2000/svg">
<path d="M41.2259 76.778C40.9961 76.3783 40.837 75.9418 40.7559 75.488C40.8459 75.94 41.0059 76.375 41.2259 76.778ZM41.8039 77.491C42.0259 77.711 42.2759 77.902 42.5529 78.039C42.2761 77.8975 42.0239 77.7125 41.8059 77.491H41.8039Z" fill="#083042"/>
<path d="M64.3419 101.967H64.2019C62.7996 101.973 61.4186 101.623 60.1879 100.951L32.0059 85.201C30.3429 84.269 29.3199 82.541 29.3199 80.674V48.628C29.3199 47.255 29.5689 45.938 30.1499 44.786L8.11394 32.522C7.20094 34.442 6.73094 36.61 6.75794 38.888V91.815C6.77405 93.3458 7.19497 94.845 7.97794 96.1605C8.76092 97.476 9.87806 98.5609 11.2159 99.305L57.6969 125.317C59.7469 126.469 62.0439 127.018 64.3139 127.018V126.991C64.3689 123.671 64.3419 110.362 64.3419 101.967Z" fill="#083042"/>
<path d="M86.4602 50.6L86.2932 50.354C86.1552 50.162 86.0182 49.997 85.8802 49.806C86.0182 49.97 86.1552 50.163 86.2932 50.354C86.3612 50.4273 86.4176 50.5096 86.4602 50.6ZM63.2622 37.76C63.4022 37.76 63.5132 37.733 63.6522 37.733C63.5132 37.76 63.3742 37.76 63.2622 37.76Z" fill="#3DDB85"/>
<path d="M30.1218 44.757C30.7402 43.477 31.723 42.4083 32.9468 41.685L59.4668 26.182C60.6815 25.4681 62.062 25.0849 63.4708 25.0705C64.8797 25.0561 66.2678 25.4111 67.4968 26.1L94.2948 41.109C95.4976 41.7802 96.5301 42.7186 97.3128 43.852L118.99 31.04C117.7 29.1839 116.006 27.6452 114.035 26.54L69.7658 1.764C67.7393 0.631802 65.4522 0.0488269 63.1311 0.0728575C60.8099 0.0968882 58.5353 0.72709 56.5328 1.901L12.7648 27.472C10.7446 28.6523 9.1246 30.411 8.11377 32.521L30.1218 44.757Z" fill="#3DDC84"/>
<path d="M41.2768 50.932C41.3328 50.822 41.3878 50.712 41.4448 50.632C41.3878 50.741 41.3338 50.822 41.2768 50.932Z" fill="#3DDB85"/>
<path d="M118.962 31.04L97.285 43.852C98.115 45.059 98.614 46.485 98.64 47.941V78.451C98.6568 79.8484 98.3017 81.2251 97.6111 82.4401C96.9205 83.655 95.9193 84.6645 94.71 85.365L68.188 100.87C67.0175 101.553 65.6938 101.93 64.339 101.967C64.368 110.336 64.368 123.644 64.312 126.964V126.991C66.6367 126.965 68.9156 126.341 70.929 125.179L114.698 99.58C118.768 97.193 121.26 92.857 121.204 88.165V37.817C121.176 35.375 120.346 33.043 118.962 31.04Z" fill="#4285F4"/>
<path d="M86.9631 75.187C86.9351 75.243 86.9351 75.298 86.9071 75.355C86.9385 75.3041 86.9577 75.2466 86.9631 75.187ZM86.6851 50.96C86.6281 50.822 86.5451 50.712 86.4621 50.575C86.5451 50.712 86.6291 50.85 86.6851 50.96ZM66.8071 88.576L84.5801 78.178L66.8071 88.578V88.576ZM86.7401 75.818C86.6841 75.956 86.6011 76.093 86.5441 76.231C86.6011 76.066 86.6561 75.928 86.7401 75.818Z" fill="#4285F4"/>
<path d="M41.1979 51.178C40.9724 51.7111 40.8324 52.2763 40.7829 52.853C40.7549 53.071 40.7549 53.291 40.7549 53.539V75.022C40.7549 75.186 40.7549 75.324 40.7829 75.489C40.8389 75.954 41.0049 76.394 41.2529 76.779C41.4199 77.053 41.6129 77.271 41.8079 77.491C42.0299 77.711 42.2779 77.902 42.5539 78.041L61.4359 88.604C62.2573 89.058 63.1814 89.2938 64.1199 89.289H64.3149C65.1951 89.2593 66.0531 89.0045 66.8069 88.549L84.5799 78.15C84.6909 78.095 84.7739 78.012 84.8849 77.958C85.0789 77.821 85.2729 77.683 85.4389 77.518C85.6989 77.282 85.9399 77.026 86.1579 76.75C86.2959 76.558 86.4349 76.367 86.5459 76.174C86.6279 76.038 86.6849 75.9 86.7389 75.762C86.7949 75.627 86.8789 75.461 86.9339 75.297C86.9609 75.241 86.9609 75.186 86.9889 75.132C87.1565 74.5992 87.2405 74.0436 87.2379 73.485V53.044C87.2379 52.661 87.1819 52.304 87.0999 51.948C87.0449 51.7 86.9599 51.48 86.8779 51.26L86.7119 50.932C86.6569 50.794 86.5719 50.685 86.4899 50.547L86.3239 50.301C86.1859 50.108 86.0469 49.944 85.9089 49.752C85.4578 49.2265 84.9133 48.7891 84.3029 48.462L66.3369 38.394C66.0269 38.2195 65.7023 38.0723 65.3669 37.954C64.9168 37.8167 64.4517 37.7341 63.9819 37.708H63.6219C63.4849 37.708 63.3739 37.708 63.2359 37.734C62.9178 37.7623 62.6027 37.8175 62.2939 37.899C62.2389 37.926 62.1839 37.926 62.1279 37.955C61.7129 38.065 61.3249 38.256 60.9369 38.475L43.1639 48.875C42.6472 49.177 42.1953 49.578 41.8339 50.055C41.6969 50.247 41.5579 50.439 41.4469 50.631C41.3919 50.741 41.3369 50.823 41.2809 50.933L41.1979 51.178Z" fill="#D6F0FF"/>
<path d="M64.312 89.288H64.118C63.1791 89.2925 62.2545 89.0571 61.432 88.604L42.552 78.04C42.2809 77.8888 42.0296 77.7044 41.804 77.491C41.5876 77.2794 41.4012 77.0392 41.25 76.777C41.0202 76.3773 40.8611 75.9409 40.78 75.487C40.751 75.324 40.751 75.186 40.751 75.022V53.537C40.751 53.318 40.751 53.072 40.78 52.851C40.833 52.276 40.972 51.711 41.195 51.177L36.1 48.078L30.12 44.758C29.566 45.91 29.29 47.226 29.29 48.599V80.646C29.3066 81.5688 29.5628 82.4714 30.0335 83.2652C30.5042 84.0591 31.1733 84.7169 31.975 85.174L60.132 100.95C61.3581 101.634 62.7422 101.984 64.146 101.966H64.286C64.286 97.877 64.257 94.969 64.257 94.969L64.312 89.288Z" fill="#083042"/>
<path d="M64.312 89.288H64.118C63.1791 89.2925 62.2545 89.0571 61.432 88.604L42.552 78.04C42.2809 77.8888 42.0296 77.7044 41.804 77.491C41.5876 77.2794 41.4012 77.0392 41.25 76.777C41.0202 76.3773 40.8611 75.9409 40.78 75.487C40.751 75.324 40.751 75.186 40.751 75.022V53.537C40.751 53.318 40.751 53.072 40.78 52.851C40.833 52.276 40.972 51.711 41.195 51.177L36.1 48.078L30.12 44.758C29.566 45.91 29.29 47.226 29.29 48.599V80.646C29.3066 81.5688 29.5628 82.4714 30.0335 83.2652C30.5042 84.0591 31.1733 84.7169 31.975 85.174L60.132 100.95C61.3581 101.634 62.7422 101.984 64.146 101.966H64.286C64.286 97.877 64.257 94.969 64.257 94.969L64.312 89.288Z" fill="#041619"/>
<path d="M94.2658 41.109L67.4668 26.099C66.2378 25.4105 64.8499 25.0559 63.4412 25.0704C62.0326 25.085 60.6523 25.4682 59.4378 26.182L32.9178 41.686C31.6871 42.4015 30.7019 43.4728 30.0918 44.759L36.1018 48.079L41.1948 51.178L41.2768 50.932C41.3328 50.821 41.3878 50.712 41.4428 50.63C41.5538 50.438 41.6928 50.246 41.8308 50.054C42.1908 49.587 42.6338 49.204 43.1608 48.874L60.9328 38.474C61.3128 38.261 61.7098 38.087 62.1238 37.954C62.1798 37.927 62.2348 37.927 62.2898 37.898C62.5978 37.814 62.9128 37.76 63.2308 37.734C63.3688 37.734 63.4798 37.706 63.6188 37.706H63.9788C64.4478 37.736 64.9118 37.817 65.3628 37.952C65.7028 38.06 66.0278 38.207 66.3318 38.393L84.2978 48.463C84.9042 48.7965 85.4483 49.2327 85.9058 49.752C86.0428 49.916 86.1828 50.109 86.3198 50.3L86.4868 50.546L91.0818 47.502L97.3108 43.798C96.5078 42.727 95.4838 41.767 94.2658 41.109Z" fill="#3DDB85"/>
<path d="M94.2658 41.109L67.4668 26.099C66.2378 25.4105 64.8499 25.0559 63.4412 25.0704C62.0326 25.085 60.6523 25.4682 59.4378 26.182L32.9178 41.686C31.6871 42.4015 30.7019 43.4728 30.0918 44.759L36.1018 48.079L41.1948 51.178L41.2768 50.932C41.3328 50.821 41.3878 50.712 41.4428 50.63C41.5538 50.438 41.6928 50.246 41.8308 50.054C42.1908 49.587 42.6338 49.204 43.1608 48.874L60.9328 38.474C61.3128 38.261 61.7098 38.087 62.1238 37.954C62.1798 37.927 62.2348 37.927 62.2898 37.898C62.5978 37.814 62.9128 37.76 63.2308 37.734C63.3688 37.734 63.4798 37.706 63.6188 37.706H63.9788C64.4478 37.736 64.9118 37.817 65.3628 37.952C65.7028 38.06 66.0278 38.207 66.3318 38.393L84.2978 48.463C84.9042 48.7965 85.4483 49.2327 85.9058 49.752C86.0428 49.916 86.1828 50.109 86.3198 50.3L86.4868 50.546L91.0818 47.502L97.3108 43.798C96.5078 42.727 95.4838 41.767 94.2658 41.109Z" fill="#37BF6E"/>
<path d="M86.4602 50.602C86.5432 50.738 86.5992 50.848 86.6812 50.986L86.8482 51.315C87.0811 51.8808 87.2033 52.4861 87.2082 53.098V73.54C87.2102 74.0983 87.1259 74.6535 86.9582 75.186C86.9312 75.24 86.9312 75.296 86.9032 75.35C86.8505 75.5106 86.786 75.667 86.7102 75.818C86.6532 75.953 86.5702 76.091 86.5152 76.228C86.4052 76.421 86.2662 76.612 86.1272 76.805C85.9095 77.0804 85.669 77.337 85.4082 77.572C85.2422 77.737 85.0482 77.874 84.8542 78.012C84.7432 78.066 84.6612 78.149 84.5502 78.204L66.7762 88.602C66.0118 89.0334 65.16 89.2871 64.2842 89.344V95.023C64.2842 95.023 64.2842 97.932 64.3122 102.02C65.6689 101.996 66.9957 101.618 68.1612 100.923L94.6812 85.419C97.1462 83.966 98.6412 81.331 98.6132 78.506V47.995C98.5862 46.513 98.0882 45.113 97.2582 43.906L91.0272 47.611L86.4602 50.602Z" fill="#4285F4"/>
<path d="M86.4602 50.602C86.5432 50.738 86.5992 50.848 86.6812 50.986L86.8482 51.315C87.0811 51.8808 87.2033 52.4861 87.2082 53.098V73.54C87.2102 74.0983 87.1259 74.6535 86.9582 75.186C86.9312 75.24 86.9312 75.296 86.9032 75.35C86.8505 75.5106 86.786 75.667 86.7102 75.818C86.6532 75.953 86.5702 76.091 86.5152 76.228C86.4052 76.421 86.2662 76.612 86.1272 76.805C85.9095 77.0804 85.669 77.337 85.4082 77.572C85.2422 77.737 85.0482 77.874 84.8542 78.012C84.7432 78.066 84.6612 78.149 84.5502 78.204L66.7762 88.602C66.0118 89.0334 65.16 89.2871 64.2842 89.344V95.023C64.2842 95.023 64.2842 97.932 64.3122 102.02C65.6689 101.996 66.9957 101.618 68.1612 100.923L94.6812 85.419C97.1462 83.966 98.6412 81.331 98.6132 78.506V47.995C98.5862 46.513 98.0882 45.113 97.2582 43.906L91.0272 47.611L86.4602 50.602Z" fill="#3870B2"/>
<path d="M62.1549 37.982C61.7389 38.092 61.3509 38.284 60.9649 38.502L43.1909 48.902L60.9629 38.504C61.3326 38.2745 61.7334 38.0994 62.1529 37.984L62.1549 37.982Z" fill="#D6F0FF"/>
<path opacity="0.1" d="M62.1549 37.982C61.7389 38.092 61.3509 38.284 60.9649 38.502L43.1909 48.902L60.9629 38.504C61.3326 38.2745 61.7334 38.0994 62.1529 37.984L62.1549 37.982Z" fill="black"/>
<path d="M86.8482 51.289C86.9337 51.5129 87.0071 51.7412 87.0682 51.973C87.0132 51.754 86.9282 51.535 86.8462 51.289H86.8482Z" fill="#D6F0FF"/>
<path opacity="0.1" d="M86.8482 51.289C86.9337 51.5129 87.0071 51.7412 87.0682 51.973C87.0132 51.754 86.9282 51.535 86.8462 51.289H86.8482Z" fill="black"/>
</svg>
