<svg width="128" height="128" viewBox="0 0 128 128" fill="none" xmlns="http://www.w3.org/2000/svg">
<path d="M18.8138 114.123L8.75977 1.35205H119.24L109.176 114.106L63.9328 126.649L18.8138 114.123Z" fill="#1572B6"/>
<path d="M64.001 117.062L100.56 106.926L109.161 10.572H64.001V117.062Z" fill="#33A9DC"/>
<path d="M64.001 51.4291H82.303L83.567 37.2661H64.001V23.4351H98.683L98.351 27.1461L94.951 65.2601H64.001V51.4291Z" fill="white"/>
<path d="M64.083 87.349L64.022 87.367L48.619 83.208L47.634 72.177H33.752L35.689 93.894L64.02 101.757L64.083 101.739V87.349Z" fill="#EBEBEB"/>
<path d="M81.1272 64.675L79.4612 83.197L64.0352 87.361V101.751L92.3892 93.893L92.5972 91.556L95.0032 64.675H81.1272Z" fill="white"/>
<path d="M64.0483 23.4351V37.2661H30.6403L30.3633 34.1581L29.7333 27.1461L29.4023 23.4351H64.0483ZM64.0013 51.4311V65.2621H48.7923L48.5153 62.1541L47.8843 55.1421L47.5543 51.4311H64.0013Z" fill="#EBEBEB"/>
</svg>
