<svg width="64" height="64" viewBox="0 0 64 64" fill="none" xmlns="http://www.w3.org/2000/svg">
<path d="M0 64V0H64V64H0Z" fill="#FFD600"/>
<path d="M41.8451 47.9058C43.0753 49.904 44.4122 51.8187 47.2442 51.8187C49.6229 51.8187 50.8709 50.6365 50.8709 49.0009C50.8709 47.0436 49.5802 46.3485 46.9634 45.2089L45.5287 44.5973C41.3882 42.8409 38.6345 40.64 38.6345 35.9911C38.6345 31.7067 41.9145 28.4462 47.0398 28.4462C50.6896 28.4462 53.3118 29.7102 55.2033 33.0205L50.734 35.8773C49.7509 34.1209 48.6878 33.4293 47.0398 33.4293C45.358 33.4293 44.2931 34.4907 44.2931 35.8773C44.2931 37.5911 45.3598 38.2845 47.822 39.3458L49.2567 39.9573C54.1367 42.0356 56.8887 44.1582 56.8887 48.9298C56.8887 54.0711 52.8282 56.8889 47.3776 56.8889C42.046 56.8889 39.0185 54.2133 37.3331 50.9013L41.8451 47.9058ZM21.2478 48.0516C22.1474 49.6622 23.5145 50.9013 25.4807 50.9013C27.3616 50.9013 28.4442 50.1582 28.4442 47.2693V28.4445H34.3696V48.1796C34.3696 54.1653 30.8976 56.8889 25.8274 56.8889C21.246 56.8889 17.9394 53.7849 16.5918 50.9013L21.2478 48.0516Z" fill="#000001"/>
</svg>
