<svg width="64" height="64" viewBox="0 0 64 64" fill="none" xmlns="http://www.w3.org/2000/svg">
<g clip-path="url(#clip0_448_716)">
<path d="M58.2004 3.36498C57.304 5.51416 56.1564 7.54966 54.7814 9.42898C51.7798 6.41483 48.2089 4.02745 44.2764 2.40565C40.3439 0.783849 36.1282 -0.0400126 31.8745 -0.0180347C27.6207 0.00394313 23.4138 0.871322 19.4982 2.53367C15.5827 4.19602 12.0367 6.62017 9.06637 9.66518C6.09606 12.7102 3.76071 16.3153 2.1961 20.2709C0.631489 24.2265 -0.131158 28.4537 -0.0475038 32.7067C0.0361507 36.9597 0.964438 41.1536 2.68339 45.0446C4.40234 48.9356 6.87765 52.4461 9.96541 55.372L11.1514 56.419C15.6773 60.2325 21.1699 62.7197 27.0216 63.6054C32.8733 64.4911 38.8559 63.7408 44.3076 61.4375C49.7594 59.1341 54.4676 55.3675 57.9116 50.5544C61.3555 45.7413 63.4009 40.0694 63.8214 34.166C64.6964 25.996 62.2974 15.656 58.2014 3.36598L58.2004 3.36498ZM14.5304 55.558C14.1889 55.98 13.7299 56.2912 13.2115 56.4522C12.693 56.6133 12.1385 56.6169 11.618 56.4627C11.0975 56.3085 10.6344 56.0034 10.2874 55.586C9.94033 55.1685 9.7249 54.6575 9.66835 54.1176C9.6118 53.5777 9.71666 53.0331 9.96968 52.5528C10.2227 52.0725 10.6125 51.6781 11.0897 51.4194C11.567 51.1607 12.1103 51.0493 12.6508 51.0995C13.1913 51.1496 13.7049 51.3589 14.1264 51.701C14.691 52.1592 15.0507 52.8227 15.1265 53.5459C15.2022 54.2691 14.9879 54.9928 14.5304 55.558ZM58.0684 45.948C50.1484 56.498 33.2384 52.938 22.3964 53.45C22.3964 53.45 20.4744 53.563 18.5394 53.88C18.5394 53.88 19.2694 53.57 20.2024 53.217C27.8164 50.567 31.4154 50.057 36.0404 47.677C44.7484 43.25 53.3624 33.555 55.1524 23.477C51.8394 33.172 41.7794 41.509 32.6224 44.895C26.3464 47.208 15.0084 49.461 15.0084 49.461L14.5514 49.216C6.83741 45.466 6.59941 28.759 20.6284 23.371C26.7714 21.005 32.6484 22.304 39.2824 20.721C46.3664 19.038 54.5624 13.731 57.8974 6.80498C61.6274 17.885 66.1214 35.227 58.0634 45.955L58.0684 45.948Z" fill="#68BD45"/>
</g>
<defs>
<clipPath id="clip0_448_716">
<rect width="64" height="64" fill="white"/>
</clipPath>
</defs>
</svg>
