<svg width="128" height="128" viewBox="0 0 128 128" fill="none" xmlns="http://www.w3.org/2000/svg">
<path d="M19.0372 113.876L9.03223 1.66101H118.968L108.952 113.859L63.9332 126.339L19.0372 113.876Z" fill="#E44D26"/>
<path d="M64 116.8L100.378 106.714L108.937 10.8361H64V116.8Z" fill="#F16529"/>
<path d="M64.0003 52.455H45.7883L44.5303 38.361H64.0003V24.599H29.4893L29.8193 28.291L33.2013 66.218H64.0003V52.455ZM64.0003 88.198L63.9393 88.215L48.6123 84.075L47.6333 73.1H33.8163L35.7443 94.709L63.9373 102.535L64.0003 102.518V88.198Z" fill="#EBEBEB"/>
<path d="M63.9521 52.455V66.218H80.8992L79.3022 84.067L63.9521 88.21V102.529L92.1671 94.709L92.3741 92.384L95.6082 56.151L95.9431 52.455H92.2351H63.9521ZM63.9521 24.599V38.361H97.1961L97.4721 35.269L98.1001 28.291L98.4291 24.599H63.9521Z" fill="white"/>
</svg>
