<svg width="123" height="165" viewBox="0 0 123 165" fill="none" xmlns="http://www.w3.org/2000/svg">
<g clip-path="url(#clip0_448_706)">
<path d="M39.6587 127.552C39.6587 127.552 33.3184 131.212 44.171 132.451C57.3189 133.939 64.0382 133.726 78.5273 131.004C78.5273 131.004 82.3369 133.375 87.6563 135.429C55.1764 149.247 14.1469 134.628 39.6587 127.552ZM35.6897 109.519C35.6897 109.519 28.5784 114.745 39.4391 115.86C53.4839 117.298 64.5753 117.416 83.7679 113.747C83.7679 113.747 86.4226 116.419 90.5967 117.88C51.326 129.279 7.58568 118.779 35.6897 109.519Z" fill="#5382A1"/>
<path d="M69.1492 78.9306C77.1526 88.0771 67.0466 96.308 67.0466 96.308C67.0466 96.308 87.3677 85.8944 78.0351 72.8537C69.3188 60.6933 62.6341 54.6503 98.8208 33.8174C98.8208 33.8174 42.02 47.9001 69.1492 78.9306Z" fill="#E76F00"/>
<path d="M112.106 140.89C112.106 140.89 116.798 144.727 106.939 147.696C88.1909 153.335 28.9075 155.037 12.4386 147.921C6.51872 145.365 17.6206 141.817 21.1126 141.072C24.7545 140.288 26.836 140.435 26.836 140.435C20.2522 135.83 -15.7187 149.475 8.56472 153.382C74.7884 164.043 129.284 148.582 112.106 140.89ZM42.7068 90.8358C42.7068 90.8358 12.552 97.9461 32.0286 100.527C40.252 101.62 56.6454 101.373 71.9157 100.103C84.3953 99.0586 96.9264 96.8364 96.9264 96.8364C96.9264 96.8364 92.526 98.7072 89.3424 100.865C58.7202 108.86 -0.436417 105.141 16.594 96.9628C30.9967 90.0518 42.7068 90.8358 42.7068 90.8358ZM96.802 120.852C127.931 104.794 113.538 89.3632 103.492 91.4424C101.03 91.9508 99.9322 92.3914 99.9322 92.3914C99.9322 92.3914 100.846 90.9703 102.592 90.3551C122.466 83.4189 137.751 110.812 96.1765 121.661C96.1765 121.661 96.6583 121.234 96.802 120.852Z" fill="#5382A1"/>
<path d="M78.0343 0.176922C78.0343 0.176922 95.2742 17.2969 61.6831 43.621C34.747 64.7382 55.5408 76.7784 61.6721 90.5349C45.9488 76.4527 34.4097 64.0558 42.1513 52.5182C53.5131 35.5809 84.9899 27.37 78.0343 0.176922Z" fill="#E76F00"/>
<path d="M45.7657 164.363C75.6457 166.262 121.53 163.31 122.616 149.275C122.616 149.275 120.527 154.596 97.9221 158.821C72.4189 163.585 40.9647 163.029 22.3086 159.976C22.3091 159.976 26.1272 163.113 45.7657 164.363Z" fill="#5382A1"/>
</g>
<defs>
<clipPath id="clip0_448_706">
<rect width="123" height="165" fill="white"/>
</clipPath>
</defs>
</svg>
