<svg width="128" height="128" viewBox="0 0 128 128" fill="none" xmlns="http://www.w3.org/2000/svg">
<path d="M44.4403 100.63C40.2103 97.3 35.7003 94.11 32.6103 89.62C26.1203 81.7 21.1203 72.52 17.7103 62.88C15.6403 56.61 14.9403 49.89 12.2703 43.86C9.49031 39.48 12.7503 34.7 17.5403 33.31C19.6703 32.9 23.4303 30.88 18.9003 32.33C14.8403 35.31 14.4503 29.62 18.6103 29.26C21.4503 28.88 22.5003 26.56 21.5303 24.46C18.4803 22.47 28.9303 20.28 23.6703 17.31C18.1903 11.4 31.3303 10.26 28.0903 16.98C27.3203 22.14 37.2703 16.03 34.9603 21.99C37.3103 24.85 43.7603 22.64 43.5903 26.66C47.0103 26.9 48.1903 29.77 51.3903 29.99C54.7203 31.49 60.7503 32.68 61.8803 36.43C58.5803 39.04 50.9303 31.03 50.5703 38.27C51.5703 48.96 51.3103 59.97 55.2203 70.15C57.0703 76.31 61.5503 81.16 65.6003 85.96C69.4803 90.66 74.7203 93.97 80.0803 96.76C84.7703 98.97 89.8303 100.44 94.9503 101.36C97.0203 99.77 100.69 93.88 103.92 96.36C104.08 99.16 97.5003 102.2 103.61 101.9C107.2 100.82 109.69 104.67 112.65 101.19C115.37 104.42 123.97 99.13 122.03 105.72C119.41 107.41 115.59 106.39 112.96 108.72C108.63 106.56 105.19 110.65 100.4 110.14C95.0803 111.09 89.6703 111.48 84.2703 111.48C75.4203 110.78 66.3803 110.49 57.9703 107.41C53.2303 106.03 48.6003 103.33 44.4403 100.63ZM51.9103 103.87C56.5403 105.87 61.0703 107.98 66.1403 108.62C74.1903 109.74 82.5103 111.46 90.5903 109.89C86.9303 108.24 83.1503 110.53 79.5103 108.71C75.1403 109.65 70.4503 108.47 66.0103 107.89C60.9603 105.64 55.5103 104.09 50.7803 101.17C44.8703 99.01 53.8403 103.94 55.4303 104.34C59.1203 106.44 51.3703 103.26 50.2703 102.39C47.1803 100.65 46.7803 101.02 49.9603 102.78C50.6003 103.15 51.2403 103.55 51.9103 103.87ZM43.1003 97.64C47.5903 99.3 43.0803 94.48 41.0303 94.76C40.1203 93.18 37.5503 92.18 39.3603 91.33C36.1003 92.46 35.9403 87.03 34.4103 87.8C30.9603 86.71 33.0703 82.85 28.9603 80.48C28.5903 77.98 24.8803 75.82 23.7003 72.05C23.1803 70.12 19.5103 64.59 21.7603 69.74C23.6803 74.7 27.0503 78.95 29.8603 83.19C32.0403 87.23 34.6203 91.45 38.5803 93.97C39.9203 95.27 41.2103 97.24 43.1003 97.64ZM30.1703 83.45C30.9903 84.91 30.3303 82.77 30.1703 83.45ZM48.4703 99.63C49.4703 99.19 47.0403 99.07 48.4703 99.63ZM50.9103 100.52C50.6603 99.29 49.8003 101.21 50.9103 100.52ZM53.9603 101.79C55.4103 100.41 51.7203 100.92 53.9603 101.79ZM59.1803 104.7C60.0703 103.4 56.3603 104.21 59.1803 104.7ZM49.1503 97.71C51.4003 96.25 46.2403 97.69 49.1503 97.71ZM51.4403 98.85C51.3703 98.08 50.6203 99.19 51.4403 98.85ZM62.8703 105.98C64.7103 107.14 73.6003 108.52 68.0303 106.46C67.1003 106.66 57.7003 103.8 62.8703 105.98ZM44.7203 91.85C44.5403 91.08 41.8703 91 44.7203 91.85ZM50.0403 94.95C51.4303 93.99 47.1703 94.21 50.0403 94.95ZM54.5203 97.7C56.5003 96.95 51.2903 96.95 54.5203 97.7ZM42.5503 89.49C44.7103 91.14 51.2503 89.7 45.8503 88.5C43.4003 87.19 37.8603 86.3 41.6303 89.29L42.5503 89.49ZM57.5503 98.65C58.4503 97.12 53.7803 97.77 57.5503 98.65ZM52.9903 95.02C58.2603 96.51 48.5603 91.68 51.6903 94.47L52.3903 94.79L52.9903 95.02ZM62.1303 100.3C67.1203 100.35 57.6203 99.62 62.1303 100.3ZM40.6303 86.6C40.4403 85.67 39.4003 86.68 40.6303 86.6ZM70.5703 105.04C70.7103 103.36 68.9503 106.29 70.5703 105.04ZM49.1503 91.82C48.8503 90.94 47.5903 91.78 49.1503 91.82ZM41.1103 86.02C43.9703 85.85 37.1803 84.76 41.1103 86.02ZM31.5703 79.86C31.2103 78.48 28.4503 77.39 31.5703 79.86ZM56.6003 95.74C56.3503 95.87 56.0803 95.14 56.6003 95.74ZM72.1803 105.3C72.1303 104.39 71.3303 105.65 72.1803 105.3ZM55.2203 94.32C55.5003 93.14 52.7803 93.96 55.2203 94.32ZM43.6203 86.96C45.7503 86.73 40.2003 85.52 43.6203 86.96ZM63.2503 99.16C66.5703 97.84 60.0103 98.52 63.2503 99.16ZM53.0403 92.23C56.8703 92.72 48.4803 89.62 52.2003 91.95L53.0403 92.23ZM66.3503 100.42C69.9303 98.28 68.7503 105.43 72.4203 101.02C76.0403 98.38 69.2903 104.29 73.7503 101.49C76.9803 99.33 81.7403 102.51 84.7503 103.55C86.9103 103.44 89.0203 105.42 91.2403 104.22C95.5103 103.07 82.8803 102.51 86.1903 100.47C82.2803 101.61 79.3903 99.11 77.4703 96.61C73.0803 95.6 68.0103 93.36 65.8203 89.47C64.9303 88.01 67.1103 89.68 65.0503 87.29C62.4103 84.94 61.0903 82.27 59.3203 79.41C57.2003 78.28 56.9503 74.95 56.7403 79.3C56.7603 76.56 54.1803 74.71 53.5503 75.48C53.5403 72.84 56.3103 74.16 54.3703 72.21C53.9503 69.47 52.5803 66.62 52.1703 63.53C51.5303 62.04 52.0803 58.85 49.9803 62.22C49.2203 65.79 49.7303 57.84 50.9203 60.46C52.4803 57.79 50.3603 58.1 50.2703 58.47C51.2903 56.21 50.9103 53.01 50.0003 54.23C50.5403 51.84 50.8603 45.43 49.1903 46.57C50.2003 44.07 51.1103 35.13 46.7203 38.54C44.9403 38.57 41.8703 39.18 40.4103 39.91C44.9703 42.42 39.9503 40.82 38.0903 40.42C37.8503 42.75 36.0103 41.74 33.7103 41.76C37.3803 42.21 31.9203 45.51 29.8203 44.23C27.0803 45.54 32.1803 48.8 29.8703 49.81C30.1503 51.33 25.6803 49.26 26.0303 52.77C23.3803 51.65 25.6703 56.93 26.9903 55.15C31.5003 56.37 30.1703 59.16 30.2803 61.8C29.5403 63.34 26.6503 58.18 29.6403 58.42C27.2803 54.59 27.0303 57.04 25.0803 58.81C24.6303 58.94 30.0703 61.34 26.6503 62.53C29.6603 63 29.7503 65.63 30.3603 67.29C32.1703 69.17 31.8003 65.21 33.9603 67.47C32.5903 65.45 26.7103 61.79 31.4403 62.96C31.4103 60.93 30.5803 59.29 32.0403 59.33C33.4803 56.73 30.5303 65.75 33.7703 62.44C34.6703 62.05 34.8903 59.84 36.5003 62.65C38.8403 64.95 37.3503 66.62 34.0403 64.51C34.6303 66.52 38.4603 67.23 37.7403 70.37C38.5003 73.13 39.5703 72.11 40.5003 71.95C41.2303 74.63 41.6403 72.66 41.6803 71.38C45.0203 72.1 44.2403 74.07 45.2803 75.45C47.5803 76.49 41.9903 68.41 45.9403 73.02C50.1003 76.77 47.5003 78.34 43.7703 77.74C46.1303 77.55 46.8903 80.93 49.8403 80.81C52.5303 82.09 54.3603 87.01 49.7203 84.96C48.1103 83.51 42.4103 81.72 47.0703 84.48C51.3703 86.47 54.7803 87.66 58.9303 90.16C61.8903 92.28 63.1803 94.7 64.3003 95.18C61.8103 96.37 56.7903 94.23 60.5203 93.57C58.1903 93.15 55.5803 91.97 57.8103 94.87C59.7003 96.45 64.5203 96.29 65.3903 96.46C64.6603 98.07 63.4003 98.2 65.4203 98.32C63.1703 99.54 66.1403 99.73 66.3503 100.42ZM61.7503 87.42C60.3803 85.99 60.0303 83.31 61.5103 85.64C62.2603 85.94 63.9403 90.02 61.7503 87.42ZM76.7403 96.94C77.5903 96.88 76.7603 97.59 76.7403 96.94ZM59.5903 83.91C60.0803 85.58 59.5303 81.74 59.5903 83.91ZM58.1003 81.9C60.2703 82.85 56.3703 78.58 58.1003 81.9ZM40.0403 69.44C41.0503 69.17 40.5403 71.17 40.0403 69.44ZM54.4103 77.23C55.1403 79.19 55.0303 74.9 54.4103 77.23ZM44.2603 70.17C45.7603 71.38 43.5503 68.88 44.2603 70.17ZM52.9703 72.96C51.3403 69.31 54.1303 70.96 53.3303 73.56L52.9703 72.96ZM37.9503 62.95C37.2203 61.75 36.0203 58.23 36.4003 57.16C36.7503 58.91 40.1203 64.69 38.0503 59.55C35.7703 55.25 40.7803 60.95 41.3003 62.02C41.5403 63.09 39.8903 61.73 41.0103 64.23C38.9703 61.38 39.8103 65.81 37.9503 62.95ZM33.3103 59.75C34.3703 61.66 33.5003 56.96 33.3103 59.75ZM35.3903 60.47C37.0803 63.4 36.3903 58.36 35.3903 60.47ZM30.3703 56.58C28.6403 54.86 27.3903 53.28 30.4503 55.51C31.6303 55.56 27.8303 51.91 30.7303 54.35C33.7903 54.91 32.2403 59.36 30.3703 56.58ZM33.0103 56.51C34.0103 55.52 33.5403 57.49 33.0103 56.51ZM34.6303 57.03C36.4803 58.23 33.1103 54.18 34.6303 57.03ZM31.4103 53.95C26.3903 49.48 37.7203 56.29 32.2303 54.78L31.4103 53.95ZM45.8003 62.31C43.6203 61.01 45.2203 53.13 45.9603 58.52C48.0703 57.84 45.8403 61.3 47.4203 61.27C47.1803 63.45 46.4703 64.24 45.8003 62.31ZM51.1303 65.46C51.5803 67.08 51.3403 63.08 51.1303 65.46ZM50.2003 64.54C50.4403 63.53 50.2303 65.74 50.2003 64.54ZM32.3903 52.48C29.1603 48.03 41.7703 56.99 34.4603 53.61C33.6903 53.4 32.7703 53.33 32.3903 52.48ZM42.6503 57.91C43.3303 58.53 42.3403 54.16 42.6503 57.91ZM50.4303 62.91C51.0303 60.77 50.4803 64.32 50.4303 62.91ZM32.8903 50.78C34.8103 50.37 40.8403 54.15 35.3003 51.86C34.6803 51.17 33.3703 51.48 32.8903 50.78ZM49.3603 58.99C49.5603 55.15 50.5103 56.7 49.3703 59.54L49.3603 58.99ZM34.3103 49.44C35.0903 48.29 32.2303 44.26 34.7203 47.99C35.8003 48.84 37.8303 49.42 36.0303 49.78C38.8703 52.28 35.3503 50.46 34.3103 49.44ZM48.5503 57.79C49.0903 53.42 49.0203 60.35 48.5503 57.79ZM32.6803 45.41C33.2803 45.15 33.0003 46.2 32.6803 45.41ZM36.3903 47.62C38.1603 49.85 37.3503 45.61 36.3903 47.62ZM46.8603 53.44C47.0603 54.56 46.8603 52.67 46.8603 53.44ZM46.2603 52.1C47.6103 54 44.8103 48.51 46.2603 52.1ZM45.3703 49.75C46.2003 51.61 45.1203 48.27 45.3703 49.75ZM46.8203 47.39C45.8203 45.63 48.0803 39.64 48.3303 43.36C47.2803 46.25 48.0303 47.87 48.7603 43.99C50.1203 40.93 48.4703 50.01 46.8203 47.39ZM48.3103 38.48C48.7503 37.95 48.4103 39.13 48.3103 38.48ZM45.8203 87.6C45.8903 87.93 45.2303 87.08 45.8203 87.6ZM50.9503 90.2C53.8103 90.94 53.7903 89.76 51.2103 89.41C49.8203 88.12 45.4403 86.75 49.3603 89.25C49.6303 89.9 50.4503 89.88 50.9503 90.2ZM40.8103 83.46C42.3803 84.64 46.7403 86.78 43.0503 83.91C44.2903 82.47 40.6703 81.7 41.8703 80.73C38.8103 78.86 39.4603 79.03 41.6003 79.09C37.9303 77.45 42.1303 77.57 41.9303 76.73C40.5103 76.45 34.9003 74.23 38.2003 76.91C34.8403 75.2 37.4003 77.55 36.3803 77.3C32.9403 76.36 39.4403 79.92 35.8403 79.03C37.8103 80.59 41.1403 83.03 36.6703 80.68C36.1003 81.53 39.8803 82.82 40.8103 83.46ZM46.1803 86.55C52.7103 88.65 42.9803 83.97 46.1803 86.55ZM73.6803 103.2C73.7603 101.9 72.7803 104.31 73.6803 103.2ZM76.5003 104.39C78.0103 102.93 76.5603 106.72 79.0003 104.03C79.0303 102.11 78.9303 100.97 76.2003 103.31C75.4503 103.73 75.1103 105.5 76.5003 104.39ZM31.6503 76.22C31.1803 74.4 28.4003 74.41 31.6503 76.22ZM34.6603 78.2C33.5403 76.34 30.6603 76.52 34.6603 78.2ZM51.8303 88.55C53.5103 90.04 59.5303 89.64 53.8603 88.73C53.0303 87.49 48.5403 87.79 51.8303 88.55ZM75.4303 103.12C78.0003 100.96 72.9303 104.09 75.4303 103.12ZM80.7903 106.81C80.8103 106.12 79.6803 107.11 80.7903 106.81ZM80.8003 105.84C83.6603 102.81 78.0303 106.02 80.8003 105.84ZM24.2203 70.01C21.7903 66.54 22.7103 64.98 20.3603 62.14C19.9103 59.97 16.3303 55.05 18.5103 60.26C20.5003 63.31 21.0903 68.03 24.2203 70.01ZM79.9003 104.88C85.1603 101.48 77.7503 103.4 79.9003 104.88ZM83.9103 106.45C86.5503 104.19 82.2503 105.98 83.9103 106.45ZM30.7503 72.38C31.5103 71.26 28.8103 72.24 30.7503 72.38ZM83.0803 105.37C85.6303 103.73 82.4903 103.98 82.6203 105.52L83.0803 105.37ZM48.5003 83.58C48.4103 82.47 47.1503 83.67 48.5003 83.58ZM50.6403 84.81C49.9503 83.43 49.5903 85.02 50.6403 84.81ZM87.1703 106.48C90.4403 104.12 85.1903 106.03 86.4903 106.93L87.1703 106.48ZM85.9103 105.88C88.5803 103.65 83.1103 106.87 85.9103 105.88ZM92.3003 110.13C94.0903 108.94 90.1303 109.75 92.3003 110.13ZM32.3903 71.57C34.7803 72.11 41.9503 77.46 37.7203 71.94C35.5503 71.3 36.8503 66 34.6403 66.94C36.1203 69.42 35.8603 70.47 32.7403 68.91C28.8303 67 30.5403 69.85 31.3103 70.64C30.2703 70.89 32.7003 71.55 32.3903 71.57ZM21.4903 62.96C21.9203 61.19 17.5403 53.21 19.4203 58.96C20.1003 60.17 20.0303 62.45 21.4903 62.96ZM41.5003 75.3C41.4403 75.15 40.2703 74.27 41.5003 75.3ZM44.5303 76.01C44.5303 74.13 41.1803 75.24 44.5303 76.01ZM70.8303 92.58C70.3303 91.3 68.8503 92.56 70.8303 92.58ZM72.0903 93.51C71.9103 92.79 71.3703 93.65 72.0903 93.51ZM82.5203 100.07C83.5203 99.33 81.2703 99.98 82.5203 100.07ZM26.9303 64.35C29.8003 63.24 23.8603 63.56 26.9303 64.35ZM68.5203 90.55C68.4803 88.69 66.6903 91.01 68.5203 90.55ZM25.8003 61.71C27.6403 61.09 24.0903 61.3 25.8003 61.71ZM31.1403 64.3C31.1103 63.69 30.5803 64.53 31.1403 64.3ZM96.3603 104.29C98.7303 103.81 104.13 105.5 105 103.66C102.12 103.59 95.0503 101.63 94.7203 104.12L95.3503 104.22L96.3603 104.29ZM32.8403 64.73C32.8903 62.85 31.3803 64.66 32.8403 64.73ZM18.7903 54.98C18.1503 51.4 16.3603 54.44 18.7903 54.98ZM22.1403 55.82C22.1803 54.67 19.0703 54.79 22.1403 55.82ZM24.0503 56.76C23.6203 57.33 23.5003 56.32 24.0503 56.76ZM36.1103 64.49C36.6803 63.97 34.7603 64.11 36.1103 64.49ZM22.7803 54.64C22.4503 51.93 18.9003 54.24 22.7803 54.64ZM15.9103 50.18C15.8103 48.93 15.2403 50.65 15.9103 50.18ZM16.9303 49.41C16.7603 47.93 16.0503 49.6 16.9303 49.41ZM22.5803 52.78C24.9703 51.84 18.2303 50.84 22.0903 52.6L22.5803 52.78ZM98.1703 99.47C99.7003 98.07 96.2303 99.04 98.1703 99.47ZM107.3 104.21C107.91 102.4 105.76 104.44 107.3 104.21ZM23.1503 49.82C23.4103 48.07 21.2603 50.17 23.1503 49.82ZM15.1203 44.44C14.6903 41.97 14.7503 37.62 18.8803 39.09C13.3703 40.19 22.7003 45.94 21.5203 41.4C23.8403 41.51 26.0503 40.03 24.8403 42.28C29.4103 41.78 32.5703 37.82 36.9803 38.37C40.4203 37.91 44.1703 37.57 47.8703 36.19C50.9103 35.97 53.8403 32.69 52.1803 30.75C48.0303 30.4 43.6803 30.92 39.1003 31.83C34.0203 32.89 29.4003 34.89 24.2703 35.76C19.2703 36.43 25.2703 37.61 23.8403 37.87C21.2303 38.77 26.9503 39.39 23.5003 40.34C21.3703 39.93 19.1503 39.2 20.0603 36.96C15.2703 37.58 11.0603 39.57 14.8503 44.44H15.1203ZM26.6603 38.56C27.7803 34.42 32.6703 41.96 28.5003 39.11C28.0003 38.73 27.1803 38.43 26.6603 38.56ZM26.8803 36.55C28.5003 35.35 27.7403 37.23 26.8803 36.55ZM28.9403 36.59C29.0903 34.69 33.6503 37.6 29.6903 37.27L28.9403 36.59ZM31.7503 35.45C32.7803 34.25 32.0503 36.52 31.7503 35.45ZM32.4703 34.97C34.1803 32.91 42.1603 33.66 36.3203 34.77C34.7603 33.59 33.5603 35.47 32.4703 34.97ZM42.8903 33.37C48.0703 35.36 42.6303 27.75 42.8903 33.37ZM45.8503 33.35C46.9303 30.52 50.0503 32.21 46.3503 32.78C46.4303 33.08 46.2403 34.24 45.8503 33.35ZM21.9903 48.37C25.2203 46.39 18.5603 46.65 21.9903 48.37ZM24.3803 49.03C25.5103 47.83 21.9203 48.54 24.3803 49.03ZM17.3403 44.04C19.1903 42.62 15.1603 43.5 17.3403 44.04ZM112.69 103.69C112.74 102.04 111.28 104.43 112.69 103.69ZM103 97.08C103.28 95.18 101.76 97.24 103 97.08ZM115.36 104.33C117.94 104.34 123.18 103.53 117.56 103.53C116.68 103.66 112.43 103.64 115.36 104.33ZM26.4803 47.87C28.5703 47.73 29.7503 45.57 26.0703 45.69C20.3803 45.1 31.0903 47.64 25.3403 46.91C24.5703 47.42 26.4303 48.01 26.4803 47.87ZM28.3203 48.8C28.1003 47.46 27.6703 49.51 28.3203 48.8ZM30.5003 42.98C31.4003 41.86 29.2403 42.68 30.5003 42.98ZM23.5503 31.38C27.2803 30.11 32.3703 28.69 34.1303 32C32.3403 29.85 33.4103 27.72 35.1003 30.88C37.4903 34.07 38.6903 29.43 37.1303 28.36C38.9003 30.56 40.9203 31.6 38.3203 28.5C41.1503 25.1 32.6603 28.95 30.7303 28.91C29.8103 29.32 21.1503 31.11 23.5503 31.38ZM25.7403 27.2C27.8703 25.6 33.0903 28.16 29.7403 25.61C29.4103 25.31 22.3903 27.54 25.7403 27.2ZM33.4903 27.52C35.9803 27.58 32.4203 24.18 35.3803 25.72C34.8903 24.13 31.9303 23.83 30.4803 23.2C29.6603 24.65 32.1403 27.54 33.4903 27.52ZM27.1003 20.48C27.9603 19.32 25.5903 21.08 27.1003 20.48ZM30.2603 21.24C34.2703 20.71 29.2403 19.52 29.4503 21.2L30.2603 21.24ZM24.3503 16.62C21.5303 12.93 29.6603 17.24 26.7903 13.38C24.3803 11.46 22.0603 15.54 24.3503 16.62ZM60.5603 36.12C61.8503 33.83 55.2203 33.03 59.6903 35.31C60.1103 35.45 60.0103 36.28 60.5603 36.12Z" fill="#010101"/>
</svg>
