<svg width="36" height="36" viewBox="0 0 36 36" fill="none" xmlns="http://www.w3.org/2000/svg">
<path d="M24.408 10.152C24.1232 10.152 23.8448 10.2365 23.608 10.3947C23.3712 10.5529 23.1866 10.7778 23.0776 11.0409C22.9686 11.3041 22.9401 11.5936 22.9957 11.8729C23.0512 12.1523 23.1884 12.4088 23.3898 12.6102C23.5912 12.8116 23.8477 12.9488 24.1271 13.0043C24.4064 13.0599 24.6959 13.0314 24.9591 12.9224C25.2222 12.8134 25.4471 12.6288 25.6053 12.392C25.7635 12.1552 25.848 11.8768 25.848 11.592C25.848 11.2101 25.6963 10.8438 25.4262 10.5738C25.1562 10.3037 24.7899 10.152 24.408 10.152ZM29.928 13.056C29.9047 12.0604 29.7182 11.0753 29.376 10.14C29.0709 9.33976 28.596 8.61513 27.984 8.016C27.3898 7.40091 26.6635 6.92901 25.86 6.636C24.9272 6.28339 23.941 6.09265 22.944 6.072C21.672 6 21.264 6 18 6C14.736 6 14.328 6 13.056 6.072C12.059 6.09265 11.0728 6.28339 10.14 6.636C9.33801 6.93198 8.61232 7.40347 8.016 8.016C7.40091 8.61021 6.92901 9.33653 6.636 10.14C6.28339 11.0728 6.09265 12.059 6.072 13.056C6 14.328 6 14.736 6 18C6 21.264 6 21.672 6.072 22.944C6.09265 23.941 6.28339 24.9272 6.636 25.86C6.92901 26.6635 7.40091 27.3898 8.016 27.984C8.61232 28.5965 9.33801 29.068 10.14 29.364C11.0728 29.7166 12.059 29.9073 13.056 29.928C14.328 30 14.736 30 18 30C21.264 30 21.672 30 22.944 29.928C23.941 29.9073 24.9272 29.7166 25.86 29.364C26.6635 29.071 27.3898 28.5991 27.984 27.984C28.5987 27.3871 29.074 26.6618 29.376 25.86C29.7182 24.9247 29.9047 23.9396 29.928 22.944C29.928 21.672 30 21.264 30 18C30 14.736 30 14.328 29.928 13.056ZM27.768 22.8C27.7593 23.5617 27.6213 24.3164 27.36 25.032C27.1684 25.5542 26.8607 26.0261 26.46 26.412C26.0708 26.8086 25.5999 27.1157 25.08 27.312C24.3644 27.5733 23.6097 27.7113 22.848 27.72C21.648 27.78 21.204 27.792 18.048 27.792C14.892 27.792 14.448 27.792 13.248 27.72C12.4571 27.7348 11.6695 27.613 10.92 27.36C10.4229 27.1537 9.97363 26.8473 9.6 26.46C9.20171 26.0745 8.89781 25.6022 8.712 25.08C8.41903 24.3542 8.25653 23.5823 8.232 22.8C8.232 21.6 8.16 21.156 8.16 18C8.16 14.844 8.16 14.4 8.232 13.2C8.23738 12.4213 8.37954 11.6495 8.652 10.92C8.86326 10.4135 9.18752 9.96199 9.6 9.6C9.96458 9.1874 10.4151 8.85972 10.92 8.64C11.6515 8.37605 12.4224 8.2381 13.2 8.232C14.4 8.232 14.844 8.16 18 8.16C21.156 8.16 21.6 8.16 22.8 8.232C23.5617 8.24074 24.3164 8.3787 25.032 8.64C25.5773 8.84238 26.0668 9.17142 26.46 9.6C26.8532 9.96861 27.1605 10.4193 27.36 10.92C27.6267 11.6507 27.7647 12.4221 27.768 13.2C27.828 14.4 27.84 14.844 27.84 18C27.84 21.156 27.828 21.6 27.768 22.8ZM18 11.844C16.783 11.8464 15.594 12.2094 14.5832 12.8873C13.5724 13.5652 12.7853 14.5274 12.3212 15.6525C11.8571 16.7776 11.7369 18.015 11.9758 19.2083C12.2146 20.4017 12.8019 21.4974 13.6633 22.3572C14.5247 23.2169 15.6216 23.802 16.8154 24.0386C18.0093 24.2751 19.2464 24.1525 20.3706 23.6862C21.4947 23.22 22.4555 22.4309 23.1314 21.4188C23.8073 20.4068 24.168 19.217 24.168 18C24.1696 17.1901 24.011 16.3879 23.7015 15.6395C23.3919 14.8912 22.9375 14.2114 22.3642 13.6393C21.791 13.0672 21.1103 12.614 20.3614 12.3059C19.6124 11.9978 18.8099 11.8408 18 11.844ZM18 21.996C17.2097 21.996 16.4371 21.7616 15.7799 21.3226C15.1228 20.8835 14.6106 20.2594 14.3082 19.5292C14.0057 18.799 13.9266 17.9956 14.0808 17.2204C14.235 16.4453 14.6156 15.7333 15.1744 15.1744C15.7333 14.6156 16.4453 14.235 17.2204 14.0808C17.9956 13.9266 18.799 14.0057 19.5292 14.3082C20.2594 14.6106 20.8835 15.1228 21.3226 15.7799C21.7616 16.4371 21.996 17.2097 21.996 18C21.996 18.5248 21.8926 19.0444 21.6918 19.5292C21.491 20.014 21.1967 20.4545 20.8256 20.8256C20.4545 21.1967 20.014 21.491 19.5292 21.6918C19.0444 21.8926 18.5248 21.996 18 21.996Z" fill="#D1D5DB"/>
</svg>
