<svg width="36" height="36" viewBox="0 0 36 36" fill="none" xmlns="http://www.w3.org/2000/svg">
<path fill-rule="evenodd" clip-rule="evenodd" d="M13.71 25.5V15.4746H10.4932V25.5H13.71ZM12.2217 13.957C13.2939 13.957 13.9619 13.1895 13.9619 12.2285C13.9443 11.25 13.2939 10.5 12.2393 10.5C11.1846 10.5 10.499 11.25 10.499 12.2285C10.499 13.1895 11.167 13.957 12.1982 13.957H12.2217ZM21.7842 15.2461C20.0791 15.2461 19.3467 16.207 18.8779 16.875V15.4805H15.6553V25.5H18.8779V19.793C18.8779 19.5 18.9014 19.207 18.9893 19.002C19.2236 18.416 19.751 17.8125 20.6416 17.8125C21.8076 17.8125 22.2764 18.709 22.2764 20.0215V25.5H25.499V19.6465C25.499 16.6406 23.9053 15.2461 21.7842 15.2461Z" fill="#D1D5DB"/>
<path d="M28.0715 6H8.04968C6.9561 6 6 6.78738 6 7.86846V27.934C6 29.0214 6.9561 29.99 8.04968 29.99H28.0653C29.1651 29.99 29.99 29.0151 29.99 27.934V7.86846C29.9962 6.78738 29.1651 6 28.0715 6ZM27.8715 27.9965H8.1934C8.08092 27.9965 7.99968 27.909 7.99968 27.8028V8.12466C7.99968 8.05593 8.06217 7.99968 8.12466 7.99968H27.8715C27.934 7.99968 27.9965 8.06217 27.9965 8.12466V27.8715C27.9965 27.9278 27.9403 27.9965 27.8715 27.9965Z" fill="#D1D5DB"/>
</svg>
